<mxfile host="app.diagrams.net" agent="Mozilla/5.0 (Windows NT 10.0; Win64; x64) AppleWebKit/537.36 (KHTML, like Gecko) Chrome/135.0.0.0 Safari/537.36" version="26.2.14">
  <diagram name="Página-1" id="ZfuYBb1uDBB9Q9XqHdRm">
    <mxGraphModel grid="1" page="1" gridSize="10" guides="1" tooltips="1" connect="1" arrows="1" fold="1" pageScale="1" pageWidth="827" pageHeight="1169" math="0" shadow="0">
      <root>
        <mxCell id="0" />
        <mxCell id="1" parent="0" />
        <mxCell id="3zAw2-aVyRhVyqf9zYFy-1" style="edgeStyle=orthogonalEdgeStyle;rounded=0;orthogonalLoop=1;jettySize=auto;html=1;exitX=0.5;exitY=0.5;exitDx=0;exitDy=0;exitPerimeter=0;entryX=0;entryY=0.5;entryDx=0;entryDy=0;" edge="1" parent="1" source="3zAw2-aVyRhVyqf9zYFy-2" target="3zAw2-aVyRhVyqf9zYFy-3">
          <mxGeometry relative="1" as="geometry" />
        </mxCell>
        <mxCell id="3zAw2-aVyRhVyqf9zYFy-2" value="Recepcionista" style="shape=umlActor;verticalLabelPosition=bottom;verticalAlign=top;html=1;" vertex="1" parent="1">
          <mxGeometry x="70" y="445" width="30" height="60" as="geometry" />
        </mxCell>
        <mxCell id="3zAw2-aVyRhVyqf9zYFy-3" value="Consultar Información de Equipos" style="ellipse;whiteSpace=wrap;html=1;" vertex="1" parent="1">
          <mxGeometry x="160" y="440" width="140" height="70" as="geometry" />
        </mxCell>
        <mxCell id="3zAw2-aVyRhVyqf9zYFy-4" value="Visualizando información principal de los equipos" style="ellipse;whiteSpace=wrap;html=1;" vertex="1" parent="1">
          <mxGeometry x="420" y="160" width="140" height="70" as="geometry" />
        </mxCell>
        <mxCell id="3zAw2-aVyRhVyqf9zYFy-5" value="Visualizando informe técnico de un equipo" style="ellipse;whiteSpace=wrap;html=1;" vertex="1" parent="1">
          <mxGeometry x="420" y="240" width="140" height="70" as="geometry" />
        </mxCell>
        <mxCell id="3zAw2-aVyRhVyqf9zYFy-6" value="Visualizando historial de un equipo" style="ellipse;whiteSpace=wrap;html=1;" vertex="1" parent="1">
          <mxGeometry x="420" y="320" width="140" height="70" as="geometry" />
        </mxCell>
        <mxCell id="3zAw2-aVyRhVyqf9zYFy-7" value="Filtrando órdenes por fecha" style="ellipse;whiteSpace=wrap;html=1;" vertex="1" parent="1">
          <mxGeometry x="420" y="400" width="140" height="70" as="geometry" />
        </mxCell>
        <mxCell id="3zAw2-aVyRhVyqf9zYFy-8" value="Filtrando&amp;nbsp;órdenes por prioridad" style="ellipse;whiteSpace=wrap;html=1;" vertex="1" parent="1">
          <mxGeometry x="420" y="480" width="140" height="70" as="geometry" />
        </mxCell>
        <mxCell id="3zAw2-aVyRhVyqf9zYFy-9" value="Filtrando&amp;nbsp;órdenes por marca" style="ellipse;whiteSpace=wrap;html=1;" vertex="1" parent="1">
          <mxGeometry x="420" y="560" width="140" height="70" as="geometry" />
        </mxCell>
        <mxCell id="3zAw2-aVyRhVyqf9zYFy-10" value="Filtrando órdenes por modelo" style="ellipse;whiteSpace=wrap;html=1;" vertex="1" parent="1">
          <mxGeometry x="420" y="640" width="140" height="70" as="geometry" />
        </mxCell>
        <mxCell id="3zAw2-aVyRhVyqf9zYFy-11" value="Extends" style="endArrow=block;endSize=16;endFill=0;html=1;rounded=0;exitX=1;exitY=0.5;exitDx=0;exitDy=0;entryX=0;entryY=0.5;entryDx=0;entryDy=0;" edge="1" parent="1" source="3zAw2-aVyRhVyqf9zYFy-3" target="3zAw2-aVyRhVyqf9zYFy-4">
          <mxGeometry width="160" relative="1" as="geometry">
            <mxPoint x="330" y="590" as="sourcePoint" />
            <mxPoint x="490" y="590" as="targetPoint" />
          </mxGeometry>
        </mxCell>
        <mxCell id="3zAw2-aVyRhVyqf9zYFy-12" value="Extends" style="endArrow=block;endSize=16;endFill=0;html=1;rounded=0;exitX=1;exitY=0.5;exitDx=0;exitDy=0;entryX=0;entryY=0.5;entryDx=0;entryDy=0;" edge="1" parent="1" source="3zAw2-aVyRhVyqf9zYFy-3" target="3zAw2-aVyRhVyqf9zYFy-10">
          <mxGeometry width="160" relative="1" as="geometry">
            <mxPoint x="120" y="130" as="sourcePoint" />
            <mxPoint x="280" y="130" as="targetPoint" />
          </mxGeometry>
        </mxCell>
        <mxCell id="3zAw2-aVyRhVyqf9zYFy-13" value="Extends" style="endArrow=block;endSize=16;endFill=0;html=1;rounded=0;exitX=1;exitY=0.5;exitDx=0;exitDy=0;entryX=0;entryY=0.5;entryDx=0;entryDy=0;" edge="1" parent="1" source="3zAw2-aVyRhVyqf9zYFy-3" target="3zAw2-aVyRhVyqf9zYFy-9">
          <mxGeometry width="160" relative="1" as="geometry">
            <mxPoint x="130" y="140" as="sourcePoint" />
            <mxPoint x="290" y="140" as="targetPoint" />
          </mxGeometry>
        </mxCell>
        <mxCell id="3zAw2-aVyRhVyqf9zYFy-14" value="Extends" style="endArrow=block;endSize=16;endFill=0;html=1;rounded=0;exitX=1;exitY=0.5;exitDx=0;exitDy=0;entryX=0;entryY=0.5;entryDx=0;entryDy=0;" edge="1" parent="1" source="3zAw2-aVyRhVyqf9zYFy-3" target="3zAw2-aVyRhVyqf9zYFy-8">
          <mxGeometry width="160" relative="1" as="geometry">
            <mxPoint x="140" y="150" as="sourcePoint" />
            <mxPoint x="300" y="150" as="targetPoint" />
          </mxGeometry>
        </mxCell>
        <mxCell id="3zAw2-aVyRhVyqf9zYFy-15" value="Extends" style="endArrow=block;endSize=16;endFill=0;html=1;rounded=0;exitX=1;exitY=0.5;exitDx=0;exitDy=0;entryX=0;entryY=0.5;entryDx=0;entryDy=0;" edge="1" parent="1" source="3zAw2-aVyRhVyqf9zYFy-3" target="3zAw2-aVyRhVyqf9zYFy-7">
          <mxGeometry width="160" relative="1" as="geometry">
            <mxPoint x="150" y="160" as="sourcePoint" />
            <mxPoint x="310" y="160" as="targetPoint" />
          </mxGeometry>
        </mxCell>
        <mxCell id="3zAw2-aVyRhVyqf9zYFy-16" value="Extends" style="endArrow=block;endSize=16;endFill=0;html=1;rounded=0;exitX=1;exitY=0.5;exitDx=0;exitDy=0;entryX=0;entryY=0.5;entryDx=0;entryDy=0;" edge="1" parent="1" source="3zAw2-aVyRhVyqf9zYFy-3" target="3zAw2-aVyRhVyqf9zYFy-6">
          <mxGeometry width="160" relative="1" as="geometry">
            <mxPoint x="160" y="170" as="sourcePoint" />
            <mxPoint x="320" y="170" as="targetPoint" />
          </mxGeometry>
        </mxCell>
        <mxCell id="3zAw2-aVyRhVyqf9zYFy-17" value="Extends" style="endArrow=block;endSize=16;endFill=0;html=1;rounded=0;exitX=1;exitY=0.5;exitDx=0;exitDy=0;entryX=0;entryY=0.5;entryDx=0;entryDy=0;" edge="1" parent="1" source="3zAw2-aVyRhVyqf9zYFy-3" target="3zAw2-aVyRhVyqf9zYFy-5">
          <mxGeometry width="160" relative="1" as="geometry">
            <mxPoint x="170" y="200" as="sourcePoint" />
            <mxPoint x="330" y="200" as="targetPoint" />
          </mxGeometry>
        </mxCell>
        <mxCell id="3zAw2-aVyRhVyqf9zYFy-18" value="Filtrando&amp;nbsp;órdenes por cliente" style="ellipse;whiteSpace=wrap;html=1;" vertex="1" parent="1">
          <mxGeometry x="420" y="720" width="140" height="70" as="geometry" />
        </mxCell>
        <mxCell id="3zAw2-aVyRhVyqf9zYFy-19" value="Extends" style="endArrow=block;endSize=16;endFill=0;html=1;rounded=0;exitX=1;exitY=0.5;exitDx=0;exitDy=0;entryX=0;entryY=0.5;entryDx=0;entryDy=0;" edge="1" parent="1" source="3zAw2-aVyRhVyqf9zYFy-3" target="3zAw2-aVyRhVyqf9zYFy-18">
          <mxGeometry width="160" relative="1" as="geometry">
            <mxPoint x="310" y="485" as="sourcePoint" />
            <mxPoint x="430" y="725" as="targetPoint" />
          </mxGeometry>
        </mxCell>
      </root>
    </mxGraphModel>
  </diagram>
</mxfile>
